<svg xmlns="http://www.w3.org/2000/svg" version="1.1" xmlns:xlink="http://www.w3.org/1999/xlink" xmlns:svgjs="http://svgjs.dev/svgjs" width="2000" height="2250" viewBox="0 0 2000 2250"><g transform="matrix(1,0,0,1,0.00023124999972878868,0)"><svg viewBox="0 0 320 360" data-background-color="#471aa0" preserveAspectRatio="xMidYMid meet" height="2250" width="2000" xmlns="http://www.w3.org/2000/svg" xmlns:xlink="http://www.w3.org/1999/xlink"><g id="tight-bounds" transform="matrix(1,0,0,1,-0.0000369999999634274,0)"><svg viewBox="0 0 320 360" height="360" width="320"><g><svg></svg></g><g><svg viewBox="0 0 320 360" height="360" width="320"><g><path transform="translate(-29.57346,-9.38389) scale(3.79147,3.79147)" d="M50 13.6c19.1 0 34.8 14.8 36.3 33.5h5.9c-0.3-4.7-1.4-9.2-3.2-13.5-2.1-5-5.2-9.6-9.1-13.4-3.9-3.9-8.4-6.9-13.4-9.1-5.3-2.2-10.8-3.4-16.5-3.4-5.7 0-11.2 1.1-16.5 3.3-5 2.1-9.6 5.2-13.4 9.1-3.9 3.9-6.9 8.4-9.1 13.4-1.8 4.3-2.9 8.9-3.2 13.5h5.9c1.5-18.6 17.2-33.4 36.3-33.4zM50 86.4c-19.1 0-34.8-14.8-36.3-33.5h-5.9c0.3 4.7 1.4 9.2 3.2 13.5 2.1 5 5.2 9.6 9.1 13.4 3.9 3.9 8.4 6.9 13.4 9.1 5.2 2.2 10.7 3.3 16.5 3.3 5.8 0 11.2-1.1 16.5-3.3 5-2.1 9.6-5.2 13.4-9.1 3.9-3.9 6.9-8.4 9.1-13.4 1.8-4.3 2.9-8.9 3.2-13.5h-5.9c-1.5 18.7-17.2 33.5-36.3 33.5z" fill="#ffffff" fill-rule="nonzero" stroke="none" stroke-width="1" stroke-linecap="butt" stroke-linejoin="miter" stroke-miterlimit="10" stroke-dasharray="" stroke-dashoffset="0" font-family="none" font-weight="none" font-size="none" text-anchor="none" style="mix-blend-mode: normal" data-fill-palette-color="tertiary"></path></g><g transform="matrix(1,0,0,1,77.89983606702047,90)"><svg viewBox="0 0 164.20032786595905 180" height="180" width="164.20032786595905"><g><svg viewBox="0 0 209.03999999999996 229.15423184" height="180" width="164.20032786595905"><g><rect width="209.03999999999996" height="7.353222609230769" x="0" y="100.78773538461537" fill="#ffffff" opacity="1" stroke-width="0" stroke="transparent" fill-opacity="1" class="rect-yte-0" data-fill-palette-color="primary" rx="1%" id="yte-0" data-palette-color="#ffffff"></rect></g><g transform="matrix(1,0,0,1,0.5199999999999818,0)"><svg viewBox="0 0 208 81.53846153846153" height="81.53846153846153" width="208"><g id="textblocktransform"><svg viewBox="0 0 208 81.53846153846153" height="81.53846153846153" width="208" id="textblock"><g><svg viewBox="0 0 208 81.53846153846153" height="81.53846153846153" width="208"><g transform="matrix(1,0,0,1,0,0)"><svg width="208" viewBox="2.2 -35.62 92.411999999155 36.23" height="81.53846153846153" data-palette-color="#ffffff"><g class="wordmark-text-0" data-fill-palette-color="primary" id="text-0"><path d="M18.6-5.98L18.6-5.98Q20.39-5.98 21.4-6.35 22.41-6.71 22.97-7.25 23.54-7.79 23.95-8.33L23.95-8.33Q24.34-8.81 24.6-9.06 24.85-9.3 25.32-9.4L25.32-9.4Q25.71-9.52 26.57-9.56 27.44-9.59 28.31-9.59 29.17-9.59 29.52-9.55L29.52-9.55Q30.03-9.52 30.22-9.35L30.22-9.35Q30.42-9.18 30.47-8.62L30.47-8.62Q30.54-7.84 30.55-6.76 30.57-5.69 30.52-4.91L30.52-4.91Q30.49-4.66 30.43-4.49 30.37-4.32 30.18-3.98L30.18-3.98Q29.93-3.59 29.22-2.84 28.52-2.1 27.15-1.31 25.78-0.51 23.62 0.05 21.46 0.61 18.31 0.61L18.31 0.61Q14.94 0.61 12.01-0.26 9.08-1.12 6.87-3.17 4.66-5.22 3.43-8.72 2.2-12.21 2.2-17.43L2.2-17.43Q2.2-23.24 4.21-27.31 6.23-31.37 9.94-33.5 13.65-35.62 18.73-35.62L18.73-35.62Q22.29-35.62 24.45-34.89 26.61-34.16 27.73-33.17 28.86-32.18 29.32-31.45L29.32-31.45Q29.49-31.18 29.57-30.97 29.64-30.76 29.66-30.32L29.66-30.32Q29.74-29.74 29.7-28.61 29.66-27.49 29.52-26.64L29.52-26.64Q29.42-26.1 29.2-25.93L29.2-25.93Q29.1-25.83 28.86-25.76 28.61-25.68 28.13-25.68L28.13-25.68Q27.34-25.68 26.37-25.74 25.39-25.81 24.9-25.88L24.9-25.88Q24.32-25.98 24.05-26.16 23.78-26.34 23.51-26.73L23.51-26.73Q23.07-27.37 22-28.2 20.92-29.03 18.46-29.03L18.46-29.03Q14.99-29.03 12.74-26.35 10.5-23.68 10.5-17.7L10.5-17.7Q10.5-11.74 12.85-8.86 15.21-5.98 18.6-5.98ZM50.63-5.98L50.63-5.98Q52.41-5.98 53.43-6.35 54.44-6.71 55-7.25 55.56-7.79 55.98-8.33L55.98-8.33Q56.37-8.81 56.63-9.06 56.88-9.3 57.35-9.4L57.35-9.4Q57.74-9.52 58.6-9.56 59.47-9.59 60.34-9.59 61.2-9.59 61.55-9.55L61.55-9.55Q62.06-9.52 62.25-9.35L62.25-9.35Q62.45-9.18 62.5-8.62L62.5-8.62Q62.57-7.84 62.58-6.76 62.6-5.69 62.55-4.91L62.55-4.91Q62.52-4.66 62.46-4.49 62.4-4.32 62.2-3.98L62.2-3.98Q61.96-3.59 61.25-2.84 60.54-2.1 59.18-1.31 57.81-0.51 55.65 0.05 53.49 0.61 50.34 0.61L50.34 0.61Q46.97 0.61 44.04-0.26 41.11-1.12 38.9-3.17 36.69-5.22 35.46-8.72 34.23-12.21 34.23-17.43L34.23-17.43Q34.23-23.24 36.24-27.31 38.25-31.37 41.97-33.5 45.68-35.62 50.75-35.62L50.75-35.62Q54.32-35.62 56.48-34.89 58.64-34.16 59.76-33.17 60.89-32.18 61.35-31.45L61.35-31.45Q61.52-31.18 61.59-30.97 61.67-30.76 61.69-30.32L61.69-30.32Q61.77-29.74 61.73-28.61 61.69-27.49 61.55-26.64L61.55-26.64Q61.45-26.1 61.23-25.93L61.23-25.93Q61.13-25.83 60.89-25.76 60.64-25.68 60.15-25.68L60.15-25.68Q59.37-25.68 58.4-25.74 57.42-25.81 56.93-25.88L56.93-25.88Q56.35-25.98 56.08-26.16 55.81-26.34 55.54-26.73L55.54-26.73Q55.1-27.37 54.03-28.2 52.95-29.03 50.49-29.03L50.49-29.03Q47.02-29.03 44.77-26.35 42.53-23.68 42.53-17.7L42.53-17.7Q42.53-11.74 44.88-8.86 47.24-5.98 50.63-5.98ZM82.66-5.98L82.66-5.98Q84.44-5.98 85.46-6.35 86.47-6.71 87.03-7.25 87.59-7.79 88.01-8.33L88.01-8.33Q88.4-8.81 88.65-9.06 88.91-9.3 89.37-9.4L89.37-9.4Q89.77-9.52 90.63-9.56 91.5-9.59 92.37-9.59 93.23-9.59 93.57-9.55L93.57-9.55Q94.09-9.52 94.28-9.35L94.28-9.35Q94.48-9.18 94.53-8.62L94.53-8.62Q94.6-7.84 94.61-6.76 94.62-5.69 94.58-4.91L94.58-4.91Q94.55-4.66 94.49-4.49 94.43-4.32 94.23-3.98L94.23-3.98Q93.99-3.59 93.28-2.84 92.57-2.1 91.21-1.31 89.84-0.51 87.68 0.05 85.52 0.61 82.37 0.61L82.37 0.61Q79 0.61 76.07-0.26 73.14-1.12 70.93-3.17 68.72-5.22 67.49-8.72 66.25-12.21 66.25-17.43L66.25-17.43Q66.25-23.24 68.27-27.31 70.28-31.37 73.99-33.5 77.7-35.62 82.78-35.62L82.78-35.62Q86.35-35.62 88.51-34.89 90.67-34.16 91.79-33.17 92.91-32.18 93.38-31.45L93.38-31.45Q93.55-31.18 93.62-30.97 93.7-30.76 93.72-30.32L93.72-30.32Q93.79-29.74 93.76-28.61 93.72-27.49 93.57-26.64L93.57-26.64Q93.48-26.1 93.26-25.93L93.26-25.93Q93.16-25.83 92.91-25.76 92.67-25.68 92.18-25.68L92.18-25.68Q91.4-25.68 90.42-25.74 89.45-25.81 88.96-25.88L88.96-25.88Q88.37-25.98 88.11-26.16 87.84-26.34 87.57-26.73L87.57-26.73Q87.13-27.37 86.05-28.2 84.98-29.03 82.51-29.03L82.51-29.03Q79.05-29.03 76.8-26.35 74.56-23.68 74.56-17.7L74.56-17.7Q74.56-11.74 76.91-8.86 79.27-5.98 82.66-5.98Z" fill="#ffffff" data-fill-palette-color="primary"></path></g></svg></g></svg></g></svg></g></svg></g><g transform="matrix(1,0,0,1,40.247999999999976,127.39023183999998)"><svg viewBox="0 0 128.544 101.76400000000001" height="101.76400000000001" width="128.544"><g><svg xmlns="http://www.w3.org/2000/svg" xmlns:xlink="http://www.w3.org/1999/xlink" version="1.1" x="0" y="0" viewBox="5 5 48 38" enable-background="new 0 0 58 48" xml:space="preserve" height="101.76400000000001" width="128.544" class="icon-icon-0" data-fill-palette-color="accent" id="icon-0"><path fill-rule="evenodd" clip-rule="evenodd" d="M5 43V13H53V43zM51 41V15H7V41zM9 9H49V11H9zM13 5H45V7H13zM23.651 35.008L17 28 23.651 20.991 25.016 22.398 19.73 28 25.016 33.602zM34.349 20.992L41 28 34.349 35.009 32.984 33.602 38.27 28 32.984 22.398z" fill="#ffffff" data-fill-palette-color="accent"></path></svg></g></svg></g><g></g></svg></g></svg></g></svg></g><defs></defs></svg><rect width="320" height="360" fill="none" stroke="none" visibility="hidden"></rect></g></svg></g></svg>